<svg width="22" height="24" viewBox="0 0 22 24" fill="none" xmlns="http://www.w3.org/2000/svg">
<rect width="22" height="24" fill="#E5E5E5"/>
<g id="ICON &#38; ILLUSTRATION">
<rect width="3227" height="2822" transform="translate(-269 -2143)" fill="white"/>
<g id="Rectangle 679" filter="url(#filter0_d_0_1)">
<path d="M-153 -4C-153 -12.8366 -145.837 -20 -137 -20H245C253.837 -20 261 -12.8366 261 -4V64C261 68.4183 257.418 72 253 72H-145C-149.418 72 -153 68.4183 -153 64V-4Z" fill="white"/>
</g>
<g id="Group 1121">
<path id="Rectangle 697" d="M0 4C0 1.79086 1.79086 0 4 0H20C21.1046 0 22 0.895431 22 2V20C22 21.1046 21.1046 22 20 22H4C1.79086 22 0 20.2091 0 18V4Z" fill="#06AEB0"/>
<path id="Rectangle 704" d="M2 17.5C2 16.1193 3.11929 15 4.5 15H22V20H4.5C3.11929 20 2 18.8807 2 17.5Z" fill="#F3F7F8"/>
<path id="Rectangle 705" d="M4 17H10V24L7 23L4 24V17Z" fill="#FF8007"/>
</g>
</g>
<defs>
<filter id="filter0_d_0_1" x="-173" y="-36" width="454" height="132" filterUnits="userSpaceOnUse" color-interpolation-filters="sRGB">
<feFlood flood-opacity="0" result="BackgroundImageFix"/>
<feColorMatrix in="SourceAlpha" type="matrix" values="0 0 0 0 0 0 0 0 0 0 0 0 0 0 0 0 0 0 127 0" result="hardAlpha"/>
<feOffset dy="4"/>
<feGaussianBlur stdDeviation="10"/>
<feColorMatrix type="matrix" values="0 0 0 0 0 0 0 0 0 0 0 0 0 0 0 0 0 0 0.06 0"/>
<feBlend mode="normal" in2="BackgroundImageFix" result="effect1_dropShadow_0_1"/>
<feBlend mode="normal" in="SourceGraphic" in2="effect1_dropShadow_0_1" result="shape"/>
</filter>
</defs>
</svg>
